# xmcd
#
# Track frame offsets: 
#        150
#        19502
#        34908
#        51604
#        73280
#        86306
#        111325
#        137269
#        160909
#        174087
#        193379
#        217470
#
# Disc length: 3128 seconds
#
# Revision: 1
# Processed by: cddbd v1.4PL0 Copyright (c) Steve Scherf et al.
# Submitted via: ExactAudioCopy v0.90b4
#
DISCID=b00c360c
DTITLE=Blues Fools - On The Move
DYEAR=2001
DGENRE=Blues
TTITLE0=Swingin' All Night Long
TTITLE1=Fat Mama Boogie
TTITLE2=Too Tight To Tame
TTITLE3=Coffee Break
TTITLE4=Foolin' Around
TTITLE5=Dynamite
TTITLE6=Soul Stealin' Mama
TTITLE7=Bad Things About You
TTITLE8=Sharp Dressed Boogie Boy
TTITLE9=Educated Man
TTITLE10=Shoot With Another Gone
TTITLE11=High Class Baby
EXTD=YEAR: 2001
EXTT0=
EXTT1=
EXTT2=
EXTT3=
EXTT4=
EXTT5=
EXTT6=
EXTT7=
EXTT8=
EXTT9=
EXTT10=
EXTT11=
PLAYORDER=
